<svg id="svg" version="1.1" xmlns="http://www.w3.org/2000/svg" xmlns:xlink="http://www.w3.org/1999/xlink" width="400" height="400" viewBox="0, 0, 400,400"><g id="svgg"><path id="path0" d="M99.802 82.397 C 99.640 82.659,133.490 82.793,199.478 82.792 C 264.294 82.790,299.189 82.653,298.800 82.401 C 297.965 81.860,100.136 81.856,99.802 82.397 M95.400 83.200 C 95.264 83.420,94.713 83.600,94.176 83.600 C 93.639 83.600,93.200 83.780,93.200 84.000 C 93.200 84.220,92.859 84.400,92.443 84.400 C 92.026 84.400,91.578 84.681,91.446 85.025 C 91.314 85.369,91.058 85.560,90.878 85.448 C 90.412 85.160,88.204 87.142,88.590 87.502 C 88.766 87.666,88.990 87.575,89.088 87.300 C 89.186 87.025,89.631 86.800,90.076 86.800 C 90.643 86.800,90.814 86.614,90.647 86.179 C 90.516 85.838,90.575 85.661,90.779 85.787 C 90.982 85.913,91.795 85.652,92.586 85.208 C 93.377 84.763,94.289 84.400,94.612 84.400 C 94.935 84.400,95.200 84.220,95.200 84.000 C 95.200 83.780,95.830 83.600,96.600 83.600 C 97.370 83.600,98.000 83.420,98.000 83.200 C 98.000 82.980,97.471 82.800,96.824 82.800 C 96.177 82.800,95.536 82.980,95.400 83.200 M301.400 83.200 C 301.536 83.420,302.087 83.600,302.624 83.600 C 303.161 83.600,303.600 83.420,303.600 83.200 C 303.600 82.980,303.049 82.800,302.376 82.800 C 301.663 82.800,301.256 82.967,301.400 83.200 M304.400 84.000 C 304.400 84.220,304.760 84.400,305.200 84.400 C 305.640 84.400,306.000 84.220,306.000 84.000 C 306.000 83.780,305.640 83.600,305.200 83.600 C 304.760 83.600,304.400 83.780,304.400 84.000 M306.400 84.702 C 306.400 84.869,306.985 85.259,307.700 85.570 C 308.415 85.881,309.125 86.325,309.278 86.556 C 309.431 86.788,309.678 86.856,309.826 86.707 C 310.199 86.335,308.997 85.200,308.229 85.200 C 307.883 85.200,307.600 85.020,307.600 84.800 C 307.600 84.580,307.330 84.400,307.000 84.400 C 306.670 84.400,306.400 84.536,306.400 84.702 M312.400 89.463 C 312.400 89.661,312.760 90.083,313.200 90.400 C 313.640 90.717,314.000 91.207,314.000 91.488 C 314.000 91.770,314.180 92.000,314.400 92.000 C 314.958 92.000,314.900 91.236,314.298 90.671 C 313.176 89.616,312.400 89.122,312.400 89.463 M84.566 92.300 C 83.695 94.101,83.546 94.800,84.035 94.800 C 84.236 94.800,84.400 94.440,84.400 94.000 C 84.400 93.560,84.599 93.200,84.843 93.200 C 85.086 93.200,85.179 92.923,85.050 92.585 C 84.915 92.235,85.069 91.872,85.407 91.742 C 86.048 91.496,86.225 90.800,85.646 90.800 C 85.451 90.800,84.965 91.475,84.566 92.300 M98.800 91.200 C 98.800 91.420,98.350 91.600,97.800 91.600 C 97.250 91.600,96.800 91.780,96.800 92.000 C 96.800 92.220,97.149 92.400,97.576 92.400 C 98.003 92.400,98.464 92.220,98.600 92.000 C 98.764 91.735,132.937 91.600,199.824 91.600 C 266.875 91.600,300.800 91.466,300.800 91.200 C 300.800 90.934,266.867 90.800,199.800 90.800 C 132.733 90.800,98.800 90.934,98.800 91.200 M301.200 91.781 C 301.200 91.881,301.875 92.282,302.700 92.672 C 304.487 93.517,306.800 95.726,306.800 96.587 C 306.800 96.924,306.980 97.200,307.200 97.200 C 307.420 97.200,307.600 97.549,307.600 97.976 C 307.600 98.403,307.780 98.864,308.000 99.000 C 308.265 99.164,308.400 133.263,308.400 200.000 C 308.400 266.737,308.535 300.836,308.800 301.000 C 309.066 301.165,309.200 267.471,309.200 200.224 C 309.200 133.141,309.066 99.200,308.800 99.200 C 308.580 99.200,308.400 98.750,308.400 98.200 C 308.400 97.650,308.220 97.200,308.000 97.200 C 307.780 97.200,307.600 96.925,307.600 96.589 C 307.600 95.796,304.204 92.400,303.411 92.400 C 303.075 92.400,302.800 92.220,302.800 92.000 C 302.800 91.780,302.440 91.600,302.000 91.600 C 301.560 91.600,301.200 91.682,301.200 91.781 M95.600 92.800 C 95.600 93.020,95.330 93.200,95.000 93.200 C 94.670 93.200,94.400 93.342,94.400 93.517 C 94.400 93.691,93.770 94.501,93.000 95.318 C 91.644 96.755,91.180 98.000,92.000 98.000 C 92.220 98.000,92.400 97.712,92.400 97.360 C 92.400 97.009,93.300 95.839,94.400 94.762 C 96.455 92.750,96.692 92.400,96.000 92.400 C 95.780 92.400,95.600 92.580,95.600 92.800 M314.800 93.000 C 314.800 93.330,314.980 93.600,315.200 93.600 C 315.420 93.600,315.600 93.330,315.600 93.000 C 315.600 92.670,315.420 92.400,315.200 92.400 C 314.980 92.400,314.800 92.670,314.800 93.000 M315.600 94.824 C 315.600 95.277,315.780 95.536,316.000 95.400 C 316.220 95.264,316.400 94.893,316.400 94.576 C 316.400 94.259,316.220 94.000,316.000 94.000 C 315.780 94.000,315.600 94.371,315.600 94.824 M82.908 96.428 C 82.876 96.852,83.019 97.200,83.225 97.200 C 83.680 97.200,83.727 96.125,83.283 95.851 C 83.109 95.744,82.940 96.003,82.908 96.428 M316.400 97.400 C 316.400 97.950,316.580 98.400,316.800 98.400 C 317.020 98.400,317.200 97.950,317.200 97.400 C 317.200 96.850,317.020 96.400,316.800 96.400 C 316.580 96.400,316.400 96.850,316.400 97.400 M90.762 100.900 C 90.442 122.070,90.784 301.795,91.146 301.915 C 91.396 301.999,91.600 302.339,91.600 302.672 C 91.600 303.710,93.973 306.800,94.771 306.800 C 95.007 306.800,95.200 306.980,95.200 307.200 C 95.200 307.420,95.470 307.600,95.800 307.600 C 96.130 307.600,96.400 307.780,96.400 308.000 C 96.400 308.220,96.745 308.400,97.167 308.400 C 97.588 308.400,98.003 308.609,98.088 308.865 C 98.381 309.744,301.600 309.619,301.600 308.740 C 301.600 308.518,261.436 308.390,200.043 308.417 C 116.389 308.453,98.320 308.367,97.543 307.930 C 95.980 307.051,92.419 303.447,92.409 302.733 C 92.404 302.367,92.207 302.002,91.972 301.924 C 91.670 301.823,91.556 271.967,91.585 200.091 C 91.612 130.497,91.495 98.400,91.212 98.400 C 90.977 98.400,90.784 99.474,90.762 100.900 M82.270 99.064 C 81.818 99.516,81.947 301.520,82.400 301.800 C 82.670 301.967,82.802 268.586,82.798 200.425 C 82.796 144.531,82.735 98.800,82.664 98.800 C 82.592 98.800,82.415 98.919,82.270 99.064 M317.228 201.524 C 317.209 267.645,317.334 300.765,317.600 300.600 C 318.102 300.290,318.102 104.168,317.600 103.000 C 317.407 102.551,317.244 145.756,317.228 201.524 M209.000 169.600 C 208.845 169.850,209.670 170.000,211.200 170.000 C 212.730 170.000,213.555 169.850,213.400 169.600 C 213.264 169.380,212.274 169.200,211.200 169.200 C 210.126 169.200,209.136 169.380,209.000 169.600 M203.845 170.326 C 203.735 170.506,204.444 170.694,205.422 170.745 C 206.452 170.798,207.200 170.661,207.200 170.418 C 207.200 169.929,204.143 169.845,203.845 170.326 M215.600 170.400 C 215.600 170.620,216.511 170.800,217.624 170.800 C 218.871 170.800,219.552 170.647,219.400 170.400 C 219.264 170.180,218.353 170.000,217.376 170.000 C 216.399 170.000,215.600 170.180,215.600 170.400 M200.600 171.200 C 200.464 171.420,200.003 171.600,199.576 171.600 C 199.149 171.600,198.800 171.780,198.800 172.000 C 198.800 172.220,199.160 172.400,199.600 172.400 C 200.040 172.400,200.400 172.220,200.400 172.000 C 200.400 171.780,200.940 171.600,201.600 171.600 C 202.260 171.600,202.800 171.420,202.800 171.200 C 202.800 170.980,202.361 170.800,201.824 170.800 C 201.287 170.800,200.736 170.980,200.600 171.200 M220.400 171.200 C 220.400 171.420,220.951 171.600,221.624 171.600 C 222.337 171.600,222.744 171.433,222.600 171.200 C 222.464 170.980,221.913 170.800,221.376 170.800 C 220.839 170.800,220.400 170.980,220.400 171.200 M151.200 173.200 C 151.200 174.300,151.380 175.200,151.600 175.200 C 151.820 175.200,152.000 174.300,152.000 173.200 C 152.000 172.100,151.820 171.200,151.600 171.200 C 151.380 171.200,151.200 172.100,151.200 173.200 M174.800 171.887 C 174.800 172.060,175.332 172.209,175.983 172.217 C 177.357 172.236,177.226 171.898,175.785 171.705 C 175.243 171.632,174.800 171.714,174.800 171.887 M223.200 172.000 C 223.200 172.220,223.560 172.400,224.000 172.400 C 224.440 172.400,224.800 172.580,224.800 172.800 C 224.800 173.020,225.160 173.200,225.600 173.200 C 226.040 173.200,226.400 173.380,226.400 173.600 C 226.400 173.820,226.670 174.000,227.000 174.000 C 227.330 174.000,227.600 174.180,227.600 174.400 C 227.600 174.620,227.960 174.800,228.400 174.800 C 228.840 174.800,229.200 174.999,229.200 175.243 C 229.200 175.486,229.479 175.578,229.821 175.447 C 230.162 175.316,230.344 175.367,230.225 175.560 C 230.106 175.752,230.726 176.672,231.602 177.603 C 233.721 179.852,236.231 184.473,237.068 187.664 C 238.117 191.663,238.206 191.600,231.436 191.600 C 228.252 191.600,225.549 191.759,225.429 191.952 C 225.310 192.146,227.054 192.335,229.306 192.371 C 235.815 192.478,235.451 192.280,235.550 195.771 C 235.594 197.336,235.746 197.614,236.861 198.171 C 238.304 198.890,245.385 199.072,245.800 198.400 C 245.936 198.180,246.319 198.000,246.652 198.000 C 248.135 198.000,249.285 193.394,248.000 192.600 C 247.780 192.464,247.596 191.958,247.591 191.476 C 247.586 190.994,247.230 190.150,246.800 189.600 C 246.370 189.050,246.014 188.375,246.009 188.100 C 246.004 187.825,245.820 187.600,245.600 187.600 C 245.380 187.600,245.200 187.351,245.200 187.046 C 245.200 186.381,240.250 181.200,239.614 181.200 C 239.368 181.200,238.780 180.840,238.308 180.400 C 237.836 179.960,237.168 179.594,236.825 179.587 C 236.481 179.580,235.858 179.316,235.441 179.000 C 235.024 178.684,234.501 178.538,234.279 178.675 C 234.051 178.816,234.000 178.724,234.162 178.462 C 234.319 178.208,234.294 178.000,234.108 178.000 C 233.921 178.000,232.972 177.280,232.000 176.400 C 231.028 175.520,230.000 174.800,229.716 174.800 C 229.432 174.800,229.200 174.641,229.200 174.447 C 229.200 174.252,228.885 173.993,228.500 173.871 C 228.115 173.749,227.260 173.341,226.600 172.964 C 224.030 171.496,223.200 171.261,223.200 172.000 M177.207 194.230 C 177.189 213.367,177.245 215.268,177.826 215.045 C 178.178 214.910,179.396 214.786,180.533 214.768 C 182.856 214.733,182.686 214.582,179.900 214.207 L 178.000 213.951 178.000 193.799 C 178.000 181.269,177.854 173.557,177.614 173.408 C 177.367 173.256,177.220 180.791,177.207 194.230 M193.660 174.642 C 193.362 174.978,193.252 175.376,193.414 175.526 C 193.577 175.677,193.790 175.575,193.888 175.300 C 193.986 175.025,194.322 174.800,194.633 174.800 C 194.945 174.800,195.200 174.620,195.200 174.400 C 195.200 173.801,194.274 173.946,193.660 174.642 M191.054 176.655 C 190.423 177.197,190.024 177.757,190.166 177.899 C 190.308 178.041,190.904 177.678,191.491 177.091 C 192.875 175.707,192.542 175.374,191.054 176.655 M189.362 178.338 C 189.522 178.598,189.417 178.800,189.120 178.800 C 188.306 178.800,187.490 180.290,188.108 180.646 C 188.379 180.801,188.476 180.791,188.326 180.623 C 188.175 180.455,188.519 179.915,189.091 179.423 C 189.885 178.740,190.006 178.451,189.604 178.202 C 189.254 177.986,189.172 178.032,189.362 178.338 M186.500 181.798 C 185.899 182.481,185.848 183.200,186.400 183.200 C 186.620 183.200,186.800 182.930,186.800 182.600 C 186.800 182.270,186.980 182.000,187.200 182.000 C 187.420 182.000,187.600 181.820,187.600 181.600 C 187.600 181.037,187.089 181.129,186.500 181.798 M209.037 182.341 C 208.921 182.528,209.900 182.713,211.213 182.753 C 212.631 182.795,213.600 182.657,213.600 182.412 C 213.600 181.917,209.340 181.850,209.037 182.341 M205.858 183.393 C 205.728 183.731,205.365 183.885,205.015 183.750 C 204.677 183.621,204.400 183.714,204.400 183.957 C 204.400 184.201,204.130 184.400,203.800 184.400 C 203.470 184.400,203.200 184.580,203.200 184.800 C 203.200 185.387,203.829 185.288,204.389 184.613 C 204.657 184.290,204.994 184.058,205.138 184.098 C 205.282 184.137,205.781 183.958,206.247 183.699 C 206.713 183.440,207.237 183.357,207.412 183.514 C 207.586 183.671,207.599 183.575,207.441 183.300 C 207.047 182.616,206.135 182.670,205.858 183.393 M215.600 183.200 C 215.600 183.420,216.061 183.600,216.624 183.600 C 217.204 183.600,217.540 183.427,217.400 183.200 C 217.264 182.980,216.803 182.800,216.376 182.800 C 215.949 182.800,215.600 182.980,215.600 183.200 M218.000 184.000 C 218.000 184.220,218.270 184.400,218.600 184.400 C 218.930 184.400,219.200 184.220,219.200 184.000 C 219.200 183.780,218.930 183.600,218.600 183.600 C 218.270 183.600,218.000 183.780,218.000 184.000 M221.200 186.312 C 221.200 186.483,221.560 186.883,222.000 187.200 C 222.440 187.517,222.800 188.097,222.800 188.488 C 222.800 188.880,222.980 189.200,223.200 189.200 C 223.420 189.200,223.600 189.560,223.600 190.000 C 223.600 190.440,223.780 190.800,224.000 190.800 C 224.986 190.800,224.160 188.639,222.518 186.922 C 221.603 185.965,221.200 185.778,221.200 186.312 M183.600 187.600 C 183.600 188.040,183.780 188.400,184.000 188.400 C 184.220 188.400,184.400 188.040,184.400 187.600 C 184.400 187.160,184.220 186.800,184.000 186.800 C 183.780 186.800,183.600 187.160,183.600 187.600 M182.934 189.827 C 182.802 190.172,182.898 190.658,183.147 190.907 C 183.484 191.244,183.600 191.084,183.600 190.280 C 183.600 189.077,183.301 188.873,182.934 189.827 M197.786 190.500 C 197.338 191.813,197.266 193.206,197.660 192.963 C 197.847 192.847,198.000 192.313,198.000 191.776 C 198.000 191.239,198.180 190.800,198.400 190.800 C 198.620 190.800,198.800 190.530,198.800 190.200 C 198.800 189.287,198.133 189.484,197.786 190.500 M182.274 193.500 C 181.882 194.178,181.996 199.550,182.408 199.805 C 182.710 199.992,182.820 199.027,182.767 196.637 C 182.693 193.283,182.630 192.884,182.274 193.500 M196.459 194.741 C 196.511 195.627,196.699 196.262,196.877 196.153 C 197.347 195.862,197.273 193.692,196.782 193.389 C 196.512 193.222,196.397 193.702,196.459 194.741 M182.367 200.900 C 182.121 201.637,182.100 204.015,182.338 204.162 C 182.511 204.269,182.694 203.556,182.745 202.578 C 182.817 201.190,182.596 200.211,182.367 200.900 M196.400 202.400 C 196.400 203.060,196.550 203.600,196.733 203.600 C 196.917 203.600,197.067 203.060,197.067 202.400 C 197.067 201.740,196.917 201.200,196.733 201.200 C 196.550 201.200,196.400 201.740,196.400 202.400 M197.382 205.087 C 197.482 206.040,198.043 207.286,198.649 207.900 C 199.573 208.835,199.658 208.404,198.790 207.186 C 198.314 206.518,197.887 205.713,197.841 205.397 C 197.715 204.543,197.296 204.259,197.382 205.087 M228.500 205.076 C 228.885 205.176,229.515 205.176,229.900 205.076 C 230.285 204.975,229.970 204.893,229.200 204.893 C 228.430 204.893,228.115 204.975,228.500 205.076 M238.077 207.172 C 238.126 207.817,238.309 208.256,238.483 208.149 C 238.948 207.862,238.870 206.000,238.394 206.000 C 238.170 206.000,238.027 206.528,238.077 207.172 M223.600 207.600 C 223.600 208.040,223.462 208.400,223.294 208.400 C 223.126 208.400,222.544 209.120,222.000 210.000 C 221.456 210.880,220.818 211.600,220.581 211.600 C 220.344 211.600,219.716 212.005,219.185 212.500 C 218.653 212.995,218.095 213.400,217.943 213.400 C 217.254 213.400,217.320 213.839,218.017 213.891 C 218.448 213.924,218.800 213.781,218.800 213.575 C 218.800 213.369,219.070 213.200,219.400 213.200 C 219.730 213.200,220.000 213.020,220.000 212.800 C 220.000 212.580,220.227 212.400,220.505 212.400 C 220.783 212.400,221.368 211.920,221.805 211.334 C 222.242 210.748,222.825 210.041,223.100 209.763 C 223.375 209.485,223.600 209.064,223.600 208.829 C 223.600 208.593,223.780 208.400,224.000 208.400 C 224.220 208.400,224.400 208.040,224.400 207.600 C 224.400 207.160,224.220 206.800,224.000 206.800 C 223.780 206.800,223.600 207.160,223.600 207.600 M237.200 209.473 C 237.200 214.942,225.926 226.000,220.351 226.000 C 219.806 226.000,219.159 226.201,218.914 226.446 C 218.593 226.767,210.821 226.874,191.269 226.828 C 173.039 226.785,163.986 226.900,163.816 227.175 C 163.644 227.453,170.464 227.585,185.053 227.586 C 199.883 227.586,206.626 227.719,206.809 228.014 C 206.954 228.250,207.237 228.411,207.437 228.374 C 208.439 228.185,209.200 228.465,209.200 229.024 C 209.200 229.393,209.388 229.531,209.662 229.362 C 209.942 229.189,210.015 229.252,209.848 229.522 C 209.533 230.033,211.845 232.400,212.659 232.400 C 212.957 232.400,213.200 232.580,213.200 232.800 C 213.200 233.020,213.819 233.200,214.576 233.200 C 215.333 233.200,216.064 233.380,216.200 233.600 C 216.343 233.832,218.530 234.000,221.400 234.000 C 224.270 234.000,226.457 233.832,226.600 233.600 C 226.736 233.380,227.737 233.200,228.824 233.200 C 229.911 233.200,230.800 233.020,230.800 232.800 C 230.800 232.580,231.340 232.400,232.000 232.400 C 232.660 232.400,233.200 232.220,233.200 232.000 C 233.200 231.780,233.543 231.600,233.962 231.600 C 234.869 231.600,238.000 229.992,238.000 229.526 C 238.000 229.347,238.284 229.200,238.631 229.200 C 239.397 229.200,244.400 224.130,244.400 223.354 C 244.400 223.049,244.550 222.800,244.733 222.800 C 245.245 222.800,247.600 218.008,247.600 216.967 C 247.600 216.461,247.780 215.936,248.000 215.800 C 248.679 215.380,248.453 212.972,247.669 212.262 C 246.835 211.507,240.639 211.290,240.200 212.000 C 239.886 212.507,237.200 212.528,237.200 212.024 C 237.200 211.817,237.380 211.536,237.600 211.400 C 237.820 211.264,238.000 210.634,238.000 210.000 C 238.000 209.366,237.820 208.736,237.600 208.600 C 237.370 208.458,237.200 208.828,237.200 209.473 M183.600 209.776 C 183.600 210.093,183.780 210.464,184.000 210.600 C 184.220 210.736,184.400 211.197,184.400 211.624 C 184.400 212.051,184.580 212.400,184.800 212.400 C 185.545 212.400,185.251 214.397,184.500 214.436 C 184.115 214.456,184.405 214.646,185.144 214.859 C 185.883 215.072,186.578 215.156,186.688 215.046 C 186.954 214.779,185.888 212.400,185.502 212.400 C 185.336 212.400,185.200 212.040,185.200 211.600 C 185.200 211.160,185.020 210.800,184.800 210.800 C 184.580 210.800,184.400 210.440,184.400 210.000 C 184.400 209.560,184.220 209.200,184.000 209.200 C 183.780 209.200,183.600 209.459,183.600 209.776 M200.400 210.478 C 200.400 210.702,200.661 210.786,200.980 210.663 C 201.338 210.526,201.485 210.633,201.366 210.945 C 201.259 211.223,201.673 211.708,202.286 212.024 C 202.899 212.340,203.490 212.689,203.600 212.799 C 204.583 213.785,206.800 214.340,206.800 213.600 C 206.800 213.380,206.440 213.200,206.000 213.200 C 205.560 213.200,205.200 213.054,205.200 212.875 C 205.200 212.696,204.578 212.305,203.818 212.007 C 203.058 211.709,202.546 211.287,202.680 211.071 C 202.814 210.854,202.731 210.795,202.496 210.941 C 202.261 211.086,201.998 210.995,201.912 210.737 C 201.717 210.151,200.400 209.926,200.400 210.478 M207.200 214.400 C 207.200 214.620,208.021 214.800,209.024 214.800 C 210.137 214.800,210.751 214.644,210.600 214.400 C 210.464 214.180,209.643 214.000,208.776 214.000 C 207.909 214.000,207.200 214.180,207.200 214.400 M213.200 214.400 C 212.770 214.678,213.197 214.789,214.700 214.794 C 215.855 214.797,216.800 214.620,216.800 214.400 C 216.800 213.888,213.992 213.888,213.200 214.400 M162.908 226.028 C 162.876 226.452,163.019 226.800,163.225 226.800 C 163.680 226.800,163.727 225.725,163.283 225.451 C 163.109 225.344,162.940 225.603,162.908 226.028 M103.844 263.271 C 103.956 263.452,104.769 263.600,105.652 263.600 C 106.535 263.600,107.495 263.825,107.786 264.100 C 108.078 264.375,109.775 266.023,111.558 267.763 C 113.341 269.503,114.800 270.780,114.800 270.602 C 114.800 270.424,115.160 270.693,115.600 271.200 C 116.040 271.707,116.400 272.241,116.400 272.387 C 116.400 272.777,122.070 278.400,122.463 278.400 C 122.648 278.400,122.800 278.670,122.800 279.000 C 122.800 279.330,122.980 279.600,123.200 279.600 C 123.420 279.600,123.600 279.345,123.600 279.034 C 123.600 278.325,108.833 263.600,108.122 263.600 C 107.835 263.600,107.600 263.411,107.600 263.180 C 107.600 262.932,106.793 262.797,105.620 262.851 C 104.531 262.900,103.732 263.089,103.844 263.271 M101.704 264.381 C 101.397 264.873,101.361 265.253,101.608 265.405 C 101.824 265.538,102.000 265.367,102.000 265.024 C 102.000 264.681,102.270 264.400,102.600 264.400 C 102.930 264.400,103.200 264.220,103.200 264.000 C 103.200 263.312,102.215 263.563,101.704 264.381 M101.200 269.400 C 101.200 269.730,101.380 270.000,101.600 270.000 C 101.820 270.000,102.000 269.730,102.000 269.400 C 102.000 269.070,101.820 268.800,101.600 268.800 C 101.380 268.800,101.200 269.070,101.200 269.400 M103.200 271.454 C 103.200 272.163,104.259 273.314,104.759 273.147 C 105.071 273.043,104.878 272.637,104.224 272.022 C 103.661 271.493,103.200 271.238,103.200 271.454 M110.582 279.018 C 112.018 280.454,112.136 280.257,106.376 286.040 C 103.502 288.924,101.245 291.378,101.360 291.493 C 101.474 291.608,101.290 292.239,100.950 292.897 C 100.462 293.840,100.436 294.188,100.825 294.546 C 101.194 294.886,101.251 294.882,101.051 294.526 C 100.498 293.540,102.634 290.662,107.592 285.713 L 112.720 280.595 111.440 279.298 C 110.735 278.584,110.025 278.000,109.861 278.000 C 109.698 278.000,110.022 278.458,110.582 279.018 M123.867 279.867 C 123.720 280.013,123.600 280.464,123.600 280.869 C 123.600 281.625,108.343 297.200,107.603 297.200 C 107.381 297.200,107.200 297.380,107.200 297.600 C 107.200 298.623,108.555 297.450,116.198 289.806 C 122.887 283.118,124.377 281.428,124.309 280.606 C 124.215 279.477,124.231 279.503,123.867 279.867 M128.000 291.705 C 125.582 293.890,125.374 295.960,127.354 298.122 C 128.634 299.520,130.000 300.076,130.000 299.200 C 130.000 298.980,129.706 298.800,129.347 298.800 C 128.213 298.800,126.801 296.748,126.800 295.100 C 126.800 294.275,126.980 293.600,127.200 293.600 C 127.420 293.600,127.600 293.407,127.600 293.171 C 127.600 292.543,128.649 291.600,129.348 291.600 C 129.681 291.600,130.064 291.420,130.200 291.200 C 130.679 290.424,128.987 290.813,128.000 291.705 M151.200 291.200 C 151.200 291.420,151.573 291.600,152.029 291.600 C 152.914 291.600,154.000 292.466,154.000 293.171 C 154.000 293.407,154.225 293.600,154.500 293.600 C 154.817 293.600,155.000 294.187,155.000 295.200 C 155.000 296.213,154.817 296.800,154.500 296.800 C 154.225 296.800,154.000 296.993,154.000 297.229 C 154.000 297.760,153.176 298.608,152.413 298.862 C 152.027 298.991,151.984 299.143,152.280 299.326 C 152.523 299.476,153.369 298.951,154.161 298.159 C 156.141 296.179,156.162 294.307,154.227 292.256 C 152.947 290.899,151.200 290.290,151.200 291.200 M101.275 295.895 C 101.349 296.278,101.767 296.635,102.205 296.688 C 102.642 296.742,102.775 296.684,102.500 296.560 C 102.225 296.435,102.000 296.078,102.000 295.767 C 102.000 295.455,101.807 295.200,101.571 295.200 C 101.335 295.200,101.202 295.513,101.275 295.895 M104.600 298.400 C 104.736 298.620,105.186 298.800,105.600 298.800 C 106.014 298.800,106.464 298.620,106.600 298.400 C 106.745 298.166,106.330 298.000,105.600 298.000 C 104.870 298.000,104.455 298.166,104.600 298.400 M307.600 301.933 C 307.600 302.337,307.465 302.802,307.300 302.967 C 307.135 303.132,307.000 303.407,307.000 303.579 C 307.000 304.097,303.112 307.600,302.536 307.600 C 302.241 307.600,302.000 307.780,302.000 308.000 C 302.000 308.628,303.103 308.469,304.083 307.700 C 305.791 306.359,307.600 304.339,307.600 303.772 C 307.600 303.457,307.780 303.200,308.000 303.200 C 308.220 303.200,308.400 302.750,308.400 302.200 C 308.400 301.650,308.220 301.200,308.000 301.200 C 307.780 301.200,307.600 301.530,307.600 301.933 M316.400 303.200 C 316.400 303.860,316.580 304.400,316.800 304.400 C 317.020 304.400,317.200 303.860,317.200 303.200 C 317.200 302.540,317.020 302.000,316.800 302.000 C 316.580 302.000,316.400 302.540,316.400 303.200 M82.800 304.000 C 82.800 304.660,82.980 305.200,83.200 305.200 C 83.420 305.200,83.600 305.560,83.600 306.000 C 83.600 306.440,83.780 306.800,84.000 306.800 C 84.220 306.800,84.400 306.541,84.400 306.224 C 84.400 305.907,84.220 305.536,84.000 305.400 C 83.780 305.264,83.600 304.623,83.600 303.976 C 83.600 303.329,83.420 302.800,83.200 302.800 C 82.980 302.800,82.800 303.340,82.800 304.000 M315.600 305.624 C 315.600 306.077,315.780 306.336,316.000 306.200 C 316.220 306.064,316.400 305.693,316.400 305.376 C 316.400 305.059,316.220 304.800,316.000 304.800 C 315.780 304.800,315.600 305.171,315.600 305.624 M84.400 307.800 C 84.400 308.130,84.580 308.400,84.800 308.400 C 85.020 308.400,85.200 308.130,85.200 307.800 C 85.200 307.470,85.020 307.200,84.800 307.200 C 84.580 307.200,84.400 307.470,84.400 307.800 M312.000 311.314 C 310.176 313.376,309.519 314.467,310.622 313.600 C 312.537 312.095,314.172 310.142,313.719 309.901 C 313.544 309.807,312.770 310.443,312.000 311.314 M86.000 310.218 C 86.000 310.632,88.049 312.484,88.267 312.267 C 88.387 312.147,88.024 311.588,87.461 311.024 C 86.465 310.028,86.000 309.772,86.000 310.218 M91.325 314.851 C 91.582 315.263,92.019 315.600,92.296 315.600 C 93.119 315.600,92.865 315.033,91.825 314.551 C 90.936 314.139,90.895 314.163,91.325 314.851 M306.635 315.453 C 306.508 315.784,306.198 315.923,305.941 315.764 C 305.665 315.593,305.584 315.650,305.742 315.906 C 305.959 316.257,308.400 315.476,308.400 315.056 C 308.400 314.637,306.811 314.995,306.635 315.453 M95.052 316.885 C 95.334 317.340,96.800 317.273,96.800 316.804 C 96.800 316.587,96.363 316.445,95.829 316.489 C 95.295 316.534,94.945 316.712,95.052 316.885 M99.001 317.602 C 99.343 318.154,300.660 318.150,301.002 317.597 C 301.164 317.335,266.870 317.200,200.000 317.200 C 132.346 317.200,98.835 317.333,99.001 317.602 " stroke="none" fill="#26313e" fill-rule="evenodd"></path><path id="path1" d="M96.239 84.855 C 91.103 86.591,84.800 92.695,84.800 95.932 C 84.800 96.321,84.575 96.865,84.300 97.140 C 83.381 98.059,83.589 301.223,84.512 303.749 C 86.636 309.564,90.454 313.359,96.361 315.526 C 98.786 316.415,301.973 316.587,302.860 315.700 C 303.135 315.425,303.661 315.200,304.030 315.200 C 307.552 315.200,314.007 308.207,315.476 302.800 C 316.263 299.902,316.214 100.462,315.426 97.434 C 313.819 91.266,308.705 86.177,302.480 84.553 C 298.511 83.517,99.334 83.809,96.239 84.855 M300.840 90.032 C 305.491 91.509,308.491 94.509,309.968 99.160 C 310.616 101.200,310.574 299.102,309.925 301.354 C 308.960 304.702,305.861 308.213,302.667 309.575 L 300.734 310.400 199.762 310.400 L 98.791 310.400 96.896 309.513 C 94.470 308.378,91.622 305.530,90.487 303.104 L 89.600 301.209 89.600 200.216 L 89.600 99.224 90.591 97.057 C 91.817 94.376,94.882 91.532,97.721 90.441 C 100.164 89.502,297.917 89.103,300.840 90.032 M205.200 171.669 C 204.430 171.883,203.080 172.257,202.200 172.501 C 196.570 174.062,190.060 178.987,187.570 183.568 C 187.223 184.206,186.671 185.149,186.343 185.664 C 184.780 188.119,182.785 198.348,183.406 200.721 C 183.562 201.315,183.834 202.790,184.011 204.000 C 184.495 207.311,185.002 208.984,186.224 211.299 C 186.833 212.455,187.567 213.846,187.855 214.391 C 188.657 215.907,188.174 216.031,181.969 215.911 L 176.200 215.800 176.000 194.456 L 175.800 173.111 170.481 173.176 C 167.555 173.211,164.889 173.344,164.556 173.472 C 163.882 173.731,164.007 224.967,164.683 225.643 C 165.071 226.031,213.610 226.177,216.800 225.800 C 218.010 225.657,219.360 225.395,219.800 225.218 C 220.240 225.041,221.887 224.403,223.459 223.801 C 229.482 221.494,233.686 216.897,236.009 210.077 C 237.265 206.391,237.275 206.399,231.513 206.406 C 225.948 206.413,226.116 206.351,224.852 208.860 C 219.602 219.283,202.331 218.240,196.934 207.176 C 195.461 204.157,195.200 202.829,195.200 198.359 C 195.200 194.058,195.332 193.429,196.951 190.001 C 202.101 179.094,219.378 178.102,224.844 188.400 C 226.144 190.847,225.976 190.787,231.513 190.794 C 237.301 190.801,237.194 190.900,235.806 186.818 C 233.013 178.606,228.068 174.406,218.080 171.761 C 215.662 171.121,207.394 171.062,205.200 171.669 M104.600 264.687 C 104.160 264.789,103.489 265.261,103.109 265.736 C 101.657 267.552,102.079 268.292,107.826 274.006 C 110.811 276.973,113.434 279.728,113.655 280.128 C 113.997 280.746,113.172 281.756,108.229 286.770 C 101.962 293.128,101.634 293.718,103.229 295.746 C 105.116 298.144,105.927 297.661,114.797 288.852 C 119.199 284.481,122.773 280.746,122.740 280.552 C 122.623 279.871,106.990 264.881,106.200 264.693 C 105.760 264.588,105.040 264.585,104.600 264.687 M129.058 292.981 C 127.400 294.518,127.669 296.802,129.629 297.815 C 131.098 298.574,150.329 298.679,151.726 297.935 C 152.956 297.280,153.575 296.364,153.575 295.200 C 153.575 292.289,152.392 292.000,140.485 292.000 L 130.117 292.000 129.058 292.981 " stroke="none" fill="#93becc" fill-rule="evenodd"></path><path id="path2" d="M100.000 83.300 C 100.000 83.465,144.910 83.600,199.800 83.600 C 254.690 83.600,299.600 83.465,299.600 83.300 C 299.600 83.135,254.690 83.000,199.800 83.000 C 144.910 83.000,100.000 83.135,100.000 83.300 M310.000 87.725 C 310.000 87.794,310.585 88.379,311.300 89.025 L 312.600 90.200 311.425 88.900 C 310.330 87.688,310.000 87.416,310.000 87.725 M128.600 90.297 C 202.777 90.564,300.276 90.570,299.862 90.306 C 299.608 90.144,254.580 90.053,199.800 90.103 C 145.020 90.154,112.980 90.241,128.600 90.297 M93.375 93.700 L 92.200 95.000 93.500 93.825 C 94.712 92.730,94.984 92.400,94.675 92.400 C 94.606 92.400,94.021 92.985,93.375 93.700 M309.797 200.000 C 309.797 254.890,309.843 277.345,309.900 249.900 C 309.957 222.455,309.957 177.545,309.900 150.100 C 309.843 122.655,309.797 145.110,309.797 200.000 M316.400 200.000 C 316.400 254.853,316.490 299.643,316.601 299.532 C 316.883 299.250,316.913 100.779,316.631 100.497 C 316.504 100.370,316.400 145.147,316.400 200.000 M82.996 175.600 C 82.996 215.750,83.043 232.175,83.100 212.100 C 83.157 192.025,83.157 159.175,83.100 139.100 C 83.043 119.025,82.996 135.450,82.996 175.600 M169.300 172.694 C 170.345 172.776,172.055 172.776,173.100 172.694 C 174.145 172.612,173.290 172.544,171.200 172.544 C 169.110 172.544,168.255 172.612,169.300 172.694 M176.527 189.541 C 176.649 198.639,176.869 206.199,177.015 206.341 C 177.161 206.483,177.174 199.146,177.043 190.036 C 176.912 180.925,176.692 173.365,176.555 173.236 C 176.417 173.106,176.405 180.443,176.527 189.541 M225.300 190.800 C 225.391 191.138,225.971 191.428,226.631 191.463 C 227.638 191.518,227.661 191.499,226.800 191.323 C 226.250 191.211,225.651 190.912,225.470 190.660 C 225.249 190.352,225.193 190.399,225.300 190.800 M230.900 191.487 C 231.505 191.578,232.495 191.578,233.100 191.487 C 233.705 191.395,233.210 191.320,232.000 191.320 C 230.790 191.320,230.295 191.395,230.900 191.487 M182.913 194.300 C 182.861 195.249,182.900 195.290,183.198 194.600 C 183.648 193.558,183.671 193.200,183.287 193.200 C 183.115 193.200,182.947 193.695,182.913 194.300 M182.904 203.315 C 182.919 204.148,183.077 204.683,183.255 204.505 C 183.433 204.327,183.421 203.645,183.228 202.990 C 182.882 201.815,182.878 201.819,182.904 203.315 M163.746 212.200 C 163.747 214.400,163.814 215.249,163.895 214.087 C 163.976 212.924,163.976 211.124,163.893 210.087 C 163.811 209.049,163.745 210.000,163.746 212.200 M176.531 212.600 C 176.533 214.140,176.605 214.721,176.692 213.891 C 176.779 213.061,176.777 211.801,176.689 211.091 C 176.600 210.381,176.529 211.060,176.531 212.600 M89.693 214.000 C 89.693 214.770,89.775 215.085,89.876 214.700 C 89.976 214.315,89.976 213.685,89.876 213.300 C 89.775 212.915,89.693 213.230,89.693 214.000 M163.748 220.400 C 163.748 222.710,163.814 223.655,163.895 222.500 C 163.976 221.345,163.976 219.455,163.895 218.300 C 163.814 217.145,163.748 218.090,163.748 220.400 M230.778 219.500 L 229.400 221.000 230.900 219.622 C 232.296 218.338,232.584 218.000,232.278 218.000 C 232.212 218.000,231.537 218.675,230.778 219.500 M89.734 221.200 C 89.734 222.850,89.805 223.525,89.891 222.700 C 89.978 221.875,89.978 220.525,89.891 219.700 C 89.805 218.875,89.734 219.550,89.734 221.200 M198.100 226.699 C 201.345 226.766,206.655 226.766,209.900 226.699 C 213.145 226.632,210.490 226.577,204.000 226.577 C 197.510 226.577,194.855 226.632,198.100 226.699 M89.780 245.000 C 89.780 252.700,89.834 255.793,89.899 251.874 C 89.965 247.955,89.965 241.655,89.899 237.874 C 89.834 234.093,89.780 237.300,89.780 245.000 M82.951 254.000 C 82.951 256.530,83.016 257.565,83.096 256.300 C 83.175 255.035,83.175 252.965,83.096 251.700 C 83.016 250.435,82.951 251.470,82.951 254.000 M82.948 262.800 C 82.948 265.110,83.014 266.055,83.095 264.900 C 83.176 263.745,83.176 261.855,83.095 260.700 C 83.014 259.545,82.948 260.490,82.948 262.800 M82.937 271.400 C 82.939 273.160,83.009 273.830,83.093 272.889 C 83.178 271.949,83.177 270.509,83.091 269.689 C 83.005 268.870,82.936 269.640,82.937 271.400 M107.183 274.500 C 108.841 276.266,109.200 276.584,109.200 276.283 C 109.200 276.219,108.345 275.364,107.300 274.383 L 105.400 272.600 107.183 274.500 M89.744 282.400 C 89.744 284.490,89.812 285.345,89.894 284.300 C 89.976 283.255,89.976 281.545,89.894 280.500 C 89.812 279.455,89.744 280.310,89.744 282.400 M82.955 284.200 C 82.956 287.060,83.020 288.178,83.097 286.683 C 83.174 285.189,83.174 282.849,83.096 281.483 C 83.018 280.118,82.955 281.340,82.955 284.200 M120.981 283.300 L 119.400 285.000 121.100 283.419 C 122.681 281.948,122.984 281.600,122.681 281.600 C 122.616 281.600,121.851 282.365,120.981 283.300 M106.393 287.900 L 101.800 292.600 106.500 288.007 C 109.085 285.480,111.200 283.365,111.200 283.307 C 111.200 283.018,110.660 283.534,106.393 287.900 M82.909 297.200 C 82.909 298.190,82.987 298.595,83.082 298.100 C 83.178 297.605,83.178 296.795,83.082 296.300 C 82.987 295.805,82.909 296.210,82.909 297.200 M306.175 306.500 L 305.000 307.800 306.300 306.625 C 307.015 305.979,307.600 305.394,307.600 305.325 C 307.600 305.016,307.270 305.288,306.175 306.500 M150.305 310.283 C 150.802 310.379,151.522 310.375,151.905 310.275 C 152.287 310.175,151.880 310.096,151.000 310.101 C 150.120 310.105,149.807 310.187,150.305 310.283 M298.800 316.800 L 296.600 317.070 298.876 317.135 C 300.128 317.171,301.264 317.020,301.400 316.800 C 301.536 316.580,301.502 316.429,301.324 316.465 C 301.146 316.501,300.010 316.652,298.800 316.800 M192.700 317.095 C 193.855 317.176,195.745 317.176,196.900 317.095 C 198.055 317.014,197.110 316.948,194.800 316.948 C 192.490 316.948,191.545 317.014,192.700 317.095 M215.700 317.076 C 216.085 317.176,216.715 317.176,217.100 317.076 C 217.485 316.975,217.170 316.893,216.400 316.893 C 215.630 316.893,215.315 316.975,215.700 317.076 M241.323 317.099 C 243.920 317.169,248.060 317.168,250.523 317.098 C 252.985 317.028,250.860 316.971,245.800 316.972 C 240.740 316.972,238.725 317.029,241.323 317.099 M267.318 317.098 C 269.033 317.173,271.733 317.172,273.318 317.097 C 274.903 317.021,273.500 316.959,270.200 316.960 C 266.900 316.961,265.603 317.022,267.318 317.098 M288.912 317.095 C 289.964 317.177,291.584 317.176,292.512 317.092 C 293.440 317.008,292.580 316.941,290.600 316.942 C 288.620 316.943,287.860 317.012,288.912 317.095 " stroke="none" fill="#64828d" fill-rule="evenodd"></path><path id="path3" d="M95.796 84.536 C 89.643 86.824,83.640 93.570,83.606 98.233 C 83.603 98.692,83.514 99.153,83.409 99.258 C 83.098 99.569,83.087 299.253,83.398 301.000 C 84.649 308.027,89.648 313.945,96.028 315.951 C 96.814 316.198,97.838 316.400,98.305 316.400 C 98.771 316.400,99.272 316.593,99.418 316.829 C 99.714 317.308,298.439 317.044,301.510 316.561 C 302.450 316.413,303.316 316.136,303.433 315.946 C 303.551 315.756,304.002 315.600,304.436 315.600 C 307.729 315.600,314.216 308.568,315.831 303.247 C 316.558 300.850,316.692 99.436,315.967 97.160 C 313.966 90.870,308.581 85.578,302.600 84.021 C 301.511 83.737,268.632 83.610,199.600 83.623 L 98.200 83.642 95.796 84.536 M302.480 84.553 C 308.705 86.177,313.819 91.266,315.426 97.434 C 316.214 100.462,316.263 299.902,315.476 302.800 C 314.007 308.207,307.552 315.200,304.030 315.200 C 303.661 315.200,303.135 315.425,302.860 315.700 C 301.973 316.587,98.786 316.415,96.361 315.526 C 90.454 313.359,86.636 309.564,84.512 303.749 C 83.589 301.223,83.381 98.059,84.300 97.140 C 84.575 96.865,84.800 96.321,84.800 95.932 C 84.800 92.695,91.103 86.591,96.239 84.855 C 99.334 83.809,298.511 83.517,302.480 84.553 M97.721 90.441 C 94.882 91.532,91.817 94.376,90.591 97.057 L 89.600 99.224 89.697 156.112 L 89.793 213.000 89.997 155.800 L 90.200 98.600 91.102 96.911 C 92.159 94.933,94.297 92.400,94.910 92.400 C 95.145 92.400,95.648 92.118,96.028 91.774 C 98.036 89.957,94.961 90.010,199.972 90.005 C 270.860 90.001,299.349 90.125,300.372 90.440 C 304.560 91.731,307.308 94.010,308.945 97.551 L 309.800 99.400 309.800 200.200 L 309.800 301.000 308.620 303.329 C 307.336 305.862,305.716 307.494,303.089 308.898 L 301.400 309.800 226.800 310.003 L 152.200 310.205 226.467 310.303 C 300.694 310.400,300.735 310.400,302.667 309.575 C 305.861 308.213,308.960 304.702,309.925 301.354 C 310.574 299.102,310.616 101.200,309.968 99.160 C 308.491 94.509,305.491 91.509,300.840 90.032 C 297.917 89.103,100.164 89.502,97.721 90.441 M202.971 171.742 C 192.345 174.965,185.140 182.864,183.397 193.200 C 182.224 200.155,183.289 207.337,186.212 212.192 C 188.339 215.724,188.442 215.640,182.143 215.511 L 176.686 215.400 176.533 194.224 C 176.449 182.577,176.300 172.966,176.201 172.867 C 175.913 172.579,164.511 172.684,164.033 172.980 C 163.549 173.279,163.449 207.676,163.928 208.886 C 164.078 209.263,164.160 201.496,164.112 191.624 C 164.037 176.414,164.110 173.643,164.593 173.458 C 164.906 173.338,167.555 173.211,170.481 173.176 L 175.800 173.111 176.000 194.456 L 176.200 215.800 181.969 215.911 C 188.174 216.031,188.657 215.907,187.855 214.391 C 187.567 213.846,186.833 212.455,186.224 211.299 C 185.002 208.984,184.495 207.311,184.011 204.000 C 183.834 202.790,183.562 201.315,183.406 200.721 C 182.785 198.348,184.780 188.119,186.343 185.664 C 186.671 185.149,187.223 184.206,187.570 183.568 C 188.685 181.516,192.387 177.638,194.726 176.071 C 198.083 173.822,199.792 173.114,205.446 171.632 C 207.803 171.014,215.559 171.093,218.080 171.761 C 227.938 174.372,232.757 178.382,235.666 186.400 C 236.265 188.050,236.765 189.203,236.778 188.963 C 236.870 187.166,234.033 181.339,231.766 178.666 C 226.146 172.040,212.671 168.800,202.971 171.742 M208.000 181.449 C 202.797 182.454,198.113 186.804,195.651 192.919 C 195.075 194.347,195.063 202.253,195.634 204.040 C 199.964 217.612,218.872 220.732,224.852 208.860 C 226.116 206.351,225.948 206.413,231.513 206.406 C 236.230 206.400,236.441 206.436,236.809 207.300 C 237.186 208.187,237.191 208.185,237.096 207.200 L 237.000 206.200 231.349 206.089 L 225.698 205.979 224.818 207.852 C 219.613 218.925,202.834 218.233,197.305 206.718 C 194.053 199.945,195.149 191.964,200.063 186.624 C 201.693 184.854,202.963 184.023,206.667 182.302 C 208.428 181.485,216.007 181.806,218.087 182.786 C 220.813 184.071,223.313 186.438,224.642 188.991 L 225.800 191.215 231.395 191.108 C 236.641 191.007,236.997 190.950,237.110 190.200 C 237.219 189.469,237.192 189.460,236.795 190.100 C 236.419 190.705,235.700 190.799,231.480 190.794 C 225.978 190.787,226.143 190.846,224.844 188.400 C 221.942 182.932,215.050 180.088,208.000 181.449 M235.782 210.603 C 233.535 217.759,228.505 222.413,220.243 224.983 C 219.826 225.113,219.589 225.322,219.715 225.449 C 220.540 226.274,227.282 222.719,230.299 219.869 C 233.617 216.734,237.259 210.376,236.699 208.697 C 236.609 208.427,236.197 209.285,235.782 210.603 M163.991 212.900 C 163.986 214.495,163.958 218.112,163.929 220.938 C 163.887 224.959,163.998 226.153,164.438 226.432 C 165.075 226.835,184.439 226.830,200.600 226.422 C 209.836 226.188,208.030 226.138,188.124 226.075 C 172.580 226.025,164.762 225.862,164.591 225.586 C 164.450 225.358,164.357 221.758,164.383 217.586 C 164.409 213.414,164.334 210.000,164.215 210.000 C 164.097 210.000,163.996 211.305,163.991 212.900 M89.709 216.800 C 89.709 217.790,89.787 218.195,89.882 217.700 C 89.978 217.205,89.978 216.395,89.882 215.900 C 89.787 215.405,89.709 215.810,89.709 216.800 M89.744 227.600 C 89.744 229.690,89.812 230.545,89.894 229.500 C 89.976 228.455,89.976 226.745,89.894 225.700 C 89.812 224.655,89.744 225.510,89.744 227.600 M214.800 226.000 L 213.000 226.280 214.600 226.317 C 215.480 226.337,216.920 226.205,217.800 226.023 L 219.400 225.692 218.000 225.706 C 217.230 225.714,215.790 225.846,214.800 226.000 M89.773 269.200 C 89.773 274.590,89.830 276.795,89.899 274.100 C 89.968 271.405,89.968 266.995,89.899 264.300 C 89.830 261.605,89.773 263.810,89.773 269.200 M103.278 264.996 C 100.719 267.149,101.154 268.088,107.832 274.819 L 113.664 280.698 107.932 286.592 C 104.779 289.833,102.139 292.750,102.065 293.074 C 101.449 295.753,104.857 298.293,107.132 296.850 C 107.867 296.385,118.979 285.391,121.467 282.669 L 123.495 280.450 115.422 272.412 C 106.326 263.355,105.689 262.967,103.278 264.996 M114.840 272.542 C 119.151 276.754,122.706 280.359,122.740 280.552 C 122.773 280.746,119.199 284.481,114.797 288.852 C 105.927 297.661,105.116 298.144,103.229 295.746 C 101.634 293.718,101.962 293.128,108.229 286.770 C 113.172 281.756,113.997 280.746,113.655 280.128 C 113.434 279.728,110.811 276.973,107.826 274.006 C 102.079 268.292,101.657 267.552,103.109 265.736 C 103.875 264.778,104.985 264.403,106.200 264.693 C 106.640 264.798,110.528 268.330,114.840 272.542 M89.680 293.504 C 89.576 303.493,91.058 306.781,96.896 309.513 L 98.791 310.400 124.296 310.307 L 149.800 310.214 124.000 310.007 C 98.370 309.801,98.189 309.794,96.553 308.919 C 91.230 306.071,90.269 303.831,89.980 293.600 L 89.760 285.800 89.680 293.504 M128.675 292.722 C 127.189 294.273,127.208 296.275,128.722 297.725 L 129.844 298.800 140.886 298.800 L 151.929 298.800 152.964 297.569 C 154.367 295.902,154.321 294.260,152.831 292.769 L 151.662 291.600 140.706 291.600 L 129.750 291.600 128.675 292.722 M151.726 292.465 C 152.956 293.120,153.575 294.036,153.575 295.200 C 153.575 296.364,152.956 297.280,151.726 297.935 C 150.329 298.679,131.098 298.574,129.629 297.815 C 127.669 296.802,127.400 294.518,129.058 292.981 L 130.117 292.000 140.485 292.000 C 147.600 292.000,151.127 292.146,151.726 292.465 " stroke="none" fill="#6c8898" fill-rule="evenodd"></path><path id="path4" d="M99.100 82.687 C 98.495 82.778,98.000 83.021,98.000 83.227 C 98.000 83.846,99.897 83.646,100.145 83.000 C 100.271 82.670,100.336 82.427,100.287 82.460 C 100.239 82.493,99.705 82.595,99.100 82.687 M149.932 83.100 C 177.065 83.157,221.345 83.157,248.332 83.100 C 275.319 83.043,253.120 82.997,199.000 82.997 C 144.880 82.997,122.799 83.043,149.932 83.100 M299.600 83.200 C 299.600 83.420,300.061 83.600,300.624 83.600 C 301.204 83.600,301.540 83.427,301.400 83.200 C 301.264 82.980,300.803 82.800,300.376 82.800 C 299.949 82.800,299.600 82.980,299.600 83.200 M95.200 84.000 C 95.200 84.506,96.017 84.506,96.800 84.000 C 97.268 83.698,97.157 83.611,96.300 83.606 C 95.695 83.603,95.200 83.780,95.200 84.000 M303.200 84.000 C 303.976 84.501,304.400 84.501,304.400 84.000 C 304.400 83.780,303.995 83.603,303.500 83.606 C 302.772 83.611,302.715 83.686,303.200 84.000 M92.600 85.200 C 91.199 86.066,90.637 86.188,91.038 85.538 C 91.211 85.259,91.148 85.185,90.879 85.351 C 90.635 85.502,90.536 85.890,90.660 86.213 C 90.802 86.581,90.642 86.800,90.232 86.800 C 89.522 86.800,86.000 90.120,86.000 90.789 C 86.000 91.587,86.708 91.184,87.602 89.879 C 88.498 88.572,89.704 87.629,93.200 85.507 C 94.190 84.906,94.730 84.424,94.400 84.436 C 94.070 84.448,93.260 84.792,92.600 85.200 M306.800 85.325 C 306.800 85.430,307.745 86.119,308.900 86.855 C 310.055 87.590,311.309 88.554,311.687 88.996 C 312.157 89.547,312.378 89.626,312.387 89.247 C 312.402 88.599,310.428 86.801,309.700 86.800 C 309.425 86.800,309.200 86.641,309.200 86.447 C 309.200 86.252,308.885 85.982,308.500 85.846 C 308.115 85.711,307.575 85.495,307.300 85.366 C 307.025 85.238,306.800 85.220,306.800 85.325 M313.479 91.647 C 314.129 92.630,314.639 93.082,314.744 92.767 C 314.841 92.477,314.713 92.171,314.460 92.087 C 314.207 92.002,314.000 91.755,314.000 91.538 C 314.000 91.321,313.743 90.886,313.429 90.571 C 312.362 89.505,312.385 89.994,313.479 91.647 M149.932 90.700 C 177.505 90.757,222.505 90.757,249.932 90.700 C 277.359 90.643,254.800 90.597,199.800 90.597 C 144.800 90.597,122.359 90.643,149.932 90.700 M97.400 91.200 C 97.264 91.420,97.523 91.600,97.976 91.600 C 98.429 91.600,98.800 91.420,98.800 91.200 C 98.800 90.980,98.541 90.800,98.224 90.800 C 97.907 90.800,97.536 90.980,97.400 91.200 M300.800 91.200 C 300.800 91.420,301.235 91.600,301.767 91.600 C 302.298 91.600,302.802 91.807,302.887 92.060 C 302.971 92.313,303.301 92.432,303.620 92.324 C 304.014 92.192,303.789 91.916,302.920 91.464 C 301.458 90.706,300.800 90.624,300.800 91.200 M85.017 91.972 C 84.744 92.414,85.375 92.892,85.744 92.522 C 86.125 92.142,86.054 91.600,85.624 91.600 C 85.417 91.600,85.144 91.768,85.017 91.972 M93.728 93.820 C 92.506 95.041,91.616 96.149,91.748 96.281 C 91.998 96.532,94.382 94.026,94.394 93.500 C 94.397 93.335,94.670 93.200,95.000 93.200 C 95.330 93.200,95.600 93.020,95.600 92.800 C 95.600 92.580,95.870 92.400,96.200 92.400 C 96.530 92.400,96.800 92.220,96.800 92.000 C 96.800 91.134,95.852 91.696,93.728 93.820 M304.400 92.564 C 304.400 92.939,307.222 95.712,307.411 95.523 C 307.591 95.343,306.141 93.666,305.100 92.850 C 304.715 92.549,304.400 92.420,304.400 92.564 M83.292 95.601 C 82.890 96.244,82.891 96.383,83.296 96.301 C 83.835 96.193,84.384 95.592,84.394 95.100 C 84.406 94.525,83.789 94.806,83.292 95.601 M315.802 95.597 C 315.667 95.815,315.741 96.310,315.966 96.697 C 316.317 97.300,316.377 97.244,316.388 96.300 C 316.401 95.150,316.216 94.928,315.802 95.597 M307.600 96.600 C 307.600 96.930,307.780 97.200,308.000 97.200 C 308.220 97.200,308.400 97.650,308.400 98.200 C 308.400 98.750,308.580 99.200,308.800 99.200 C 309.365 99.200,309.297 98.548,308.590 97.180 C 307.915 95.875,307.600 95.690,307.600 96.600 M91.012 97.317 C 90.841 97.712,90.813 98.147,90.951 98.284 C 91.357 98.690,91.684 98.120,91.497 97.331 C 91.332 96.633,91.310 96.632,91.012 97.317 M82.800 98.024 C 82.800 98.477,82.980 98.736,83.200 98.600 C 83.420 98.464,83.600 98.093,83.600 97.776 C 83.600 97.459,83.420 97.200,83.200 97.200 C 82.980 97.200,82.800 97.571,82.800 98.024 M316.400 99.376 C 316.400 99.913,316.580 100.464,316.800 100.600 C 317.033 100.744,317.200 100.337,317.200 99.624 C 317.200 98.951,317.020 98.400,316.800 98.400 C 316.580 98.400,316.400 98.839,316.400 99.376 M90.252 99.700 C 89.875 101.106,89.971 300.134,90.348 300.730 C 90.533 301.022,90.679 255.707,90.672 200.030 C 90.666 144.354,90.623 98.800,90.577 98.800 C 90.531 98.800,90.385 99.205,90.252 99.700 M309.397 200.200 C 309.397 255.420,309.443 277.951,309.500 250.268 C 309.557 222.585,309.557 177.405,309.500 149.868 C 309.443 122.331,309.397 144.980,309.397 200.200 M316.937 109.400 C 316.939 111.160,317.009 111.830,317.093 110.889 C 317.178 109.949,317.177 108.509,317.091 107.689 C 317.005 106.870,316.936 107.640,316.937 109.400 M316.940 117.200 C 316.940 119.070,317.009 119.835,317.093 118.900 C 317.177 117.965,317.177 116.435,317.093 115.500 C 317.009 114.565,316.940 115.330,316.940 117.200 M316.934 127.200 C 316.934 128.850,317.005 129.525,317.091 128.700 C 317.178 127.875,317.178 126.525,317.091 125.700 C 317.005 124.875,316.934 125.550,316.934 127.200 M316.996 210.400 C 316.996 254.510,317.043 272.555,317.100 250.500 C 317.157 228.445,317.157 192.355,317.100 170.300 C 317.043 148.245,316.996 166.290,316.996 210.400 M207.200 170.400 C 207.200 170.641,208.867 170.800,211.400 170.800 C 213.933 170.800,215.600 170.641,215.600 170.400 C 215.600 170.159,213.933 170.000,211.400 170.000 C 208.867 170.000,207.200 170.159,207.200 170.400 M203.500 170.700 C 202.703 170.881,202.541 171.603,203.300 171.594 C 204.020 171.585,204.948 170.933,204.543 170.720 C 204.354 170.622,203.885 170.612,203.500 170.700 M218.400 171.200 C 219.186 171.708,220.400 171.708,220.400 171.200 C 220.400 170.980,219.815 170.803,219.100 170.806 C 218.114 170.811,217.945 170.906,218.400 171.200 M163.300 172.221 C 162.659 172.920,162.560 211.396,163.200 211.000 C 163.458 210.841,163.600 204.010,163.600 191.819 C 163.600 175.071,163.672 172.858,164.221 172.647 C 164.563 172.516,167.083 172.392,169.821 172.373 C 172.560 172.353,174.800 172.194,174.800 172.019 C 174.800 171.426,163.854 171.618,163.300 172.221 M175.600 172.052 C 175.085 172.415,175.094 172.446,175.661 172.265 C 176.643 171.953,176.836 173.126,176.795 179.187 C 176.776 182.150,176.852 184.482,176.964 184.369 C 177.076 184.257,177.193 181.586,177.223 178.435 C 177.280 172.400,176.949 171.100,175.600 172.052 M200.400 172.000 C 200.400 172.501,200.824 172.501,201.600 172.000 C 202.085 171.686,202.028 171.611,201.300 171.606 C 200.805 171.603,200.400 171.780,200.400 172.000 M222.600 172.400 C 224.493 173.276,224.800 173.332,224.800 172.800 C 224.800 172.580,224.440 172.400,224.000 172.400 C 223.560 172.400,223.200 172.220,223.200 172.000 C 223.200 171.780,222.705 171.613,222.100 171.630 C 221.066 171.658,221.095 171.703,222.600 172.400 M198.000 172.800 C 198.000 173.020,198.259 173.200,198.576 173.200 C 198.893 173.200,199.264 173.020,199.400 172.800 C 199.536 172.580,199.277 172.400,198.824 172.400 C 198.371 172.400,198.000 172.580,198.000 172.800 M195.507 174.000 C 195.232 174.440,194.781 174.800,194.504 174.800 C 194.227 174.800,194.000 174.980,194.000 175.200 C 194.000 175.420,193.711 175.600,193.358 175.600 C 193.004 175.600,192.351 176.063,191.905 176.630 C 191.459 177.196,190.658 177.826,190.123 178.029 C 189.589 178.232,189.258 178.571,189.389 178.782 C 189.519 178.992,189.170 179.463,188.613 179.828 C 188.056 180.193,187.600 180.831,187.600 181.246 C 187.600 181.661,187.420 182.000,187.200 182.000 C 186.980 182.000,186.800 182.251,186.800 182.557 C 186.800 182.864,186.550 183.210,186.244 183.328 C 185.327 183.680,184.333 185.941,185.152 185.812 C 185.522 185.754,185.787 185.353,185.770 184.875 C 185.754 184.416,185.867 184.118,186.022 184.213 C 186.466 184.488,188.461 181.222,188.153 180.724 C 188.001 180.478,188.054 180.386,188.271 180.520 C 188.488 180.654,189.551 179.863,190.633 178.763 C 191.715 177.662,193.454 176.211,194.498 175.540 C 195.543 174.868,196.298 174.159,196.178 173.964 C 196.057 173.769,196.220 173.709,196.539 173.832 C 196.858 173.954,197.238 173.862,197.383 173.627 C 197.538 173.377,197.307 173.200,196.827 173.200 C 196.376 173.200,195.782 173.560,195.507 174.000 M225.200 173.390 C 225.200 173.494,225.740 173.859,226.400 174.200 C 227.083 174.553,227.600 174.644,227.600 174.410 C 227.600 174.185,227.330 174.000,227.000 174.000 C 226.670 174.000,226.400 173.820,226.400 173.600 C 226.400 173.380,226.130 173.200,225.800 173.200 C 225.470 173.200,225.200 173.285,225.200 173.390 M230.119 176.831 C 233.455 179.804,236.684 185.786,236.903 189.400 C 236.999 190.981,236.981 191.003,235.400 191.243 L 233.800 191.486 235.513 191.543 C 237.715 191.616,237.951 191.028,237.068 187.664 C 236.231 184.473,233.721 179.852,231.602 177.603 C 230.726 176.672,230.106 175.752,230.225 175.560 C 230.344 175.367,230.162 175.316,229.821 175.447 C 229.479 175.578,229.200 175.486,229.200 175.243 C 229.200 174.999,228.894 174.800,228.520 174.800 C 228.090 174.800,228.678 175.547,230.119 176.831 M207.400 182.306 C 206.414 183.031,206.873 183.502,208.012 182.934 C 208.666 182.608,209.200 182.265,209.200 182.171 C 209.200 181.888,207.829 181.991,207.400 182.306 M213.600 182.322 C 213.600 182.499,214.365 182.682,215.300 182.728 C 216.548 182.791,216.840 182.707,216.400 182.413 C 215.682 181.933,213.600 181.866,213.600 182.322 M205.169 182.900 C 204.825 184.024,204.917 184.401,205.432 183.973 C 206.090 183.427,206.180 182.800,205.600 182.800 C 205.380 182.800,205.186 182.845,205.169 182.900 M217.400 183.200 C 217.536 183.420,217.917 183.600,218.247 183.600 C 218.577 183.600,218.736 183.420,218.600 183.200 C 218.464 182.980,218.083 182.800,217.753 182.800 C 217.423 182.800,217.264 182.980,217.400 183.200 M202.503 184.525 C 201.789 185.006,201.285 185.616,201.382 185.880 C 201.494 186.183,201.321 186.268,200.910 186.110 C 200.430 185.926,200.326 186.030,200.510 186.510 C 200.694 186.990,200.590 187.094,200.110 186.910 C 199.619 186.722,199.525 186.829,199.726 187.351 C 199.872 187.731,199.845 187.951,199.667 187.841 C 199.371 187.659,198.000 188.945,198.000 189.405 C 198.000 190.464,201.948 186.793,201.984 185.700 C 201.993 185.425,202.270 185.200,202.600 185.200 C 202.930 185.200,203.200 185.020,203.200 184.800 C 203.200 184.580,203.470 184.400,203.800 184.400 C 204.130 184.400,204.400 184.220,204.400 184.000 C 204.400 183.419,203.963 183.540,202.503 184.525 M220.400 185.013 C 220.400 185.349,220.715 185.746,221.099 185.893 C 222.019 186.246,223.365 187.610,223.729 188.558 C 223.888 188.974,224.129 189.204,224.264 189.070 C 224.784 188.550,221.854 184.996,221.226 185.384 C 220.975 185.539,220.904 185.394,221.047 185.021 C 221.178 184.679,221.086 184.400,220.843 184.400 C 220.599 184.400,220.400 184.676,220.400 185.013 M183.600 189.224 C 183.600 189.677,183.780 189.936,184.000 189.800 C 184.220 189.664,184.400 189.293,184.400 188.976 C 184.400 188.659,184.220 188.400,184.000 188.400 C 183.780 188.400,183.600 188.771,183.600 189.224 M224.400 190.480 C 224.400 190.990,224.753 191.628,225.185 191.898 C 225.842 192.308,225.933 192.291,225.742 191.794 C 225.617 191.467,225.359 191.200,225.170 191.200 C 224.980 191.200,224.922 190.948,225.040 190.640 C 225.158 190.333,225.062 189.962,224.827 189.817 C 224.571 189.659,224.400 189.924,224.400 190.480 M182.800 191.976 C 182.800 192.649,182.980 193.200,183.200 193.200 C 183.420 193.200,183.600 192.761,183.600 192.224 C 183.600 191.687,183.420 191.136,183.200 191.000 C 182.967 190.856,182.800 191.263,182.800 191.976 M196.568 192.138 C 196.417 192.532,196.474 193.034,196.694 193.254 C 197.230 193.790,197.642 192.716,197.185 191.975 C 196.908 191.528,196.791 191.559,196.568 192.138 M195.856 194.884 C 195.456 196.379,195.567 202.332,196.000 202.600 C 196.432 202.867,196.448 202.684,196.447 197.656 C 196.446 194.163,196.270 193.339,195.856 194.884 M182.000 200.400 C 182.000 201.147,182.107 201.253,182.480 200.880 C 182.853 200.507,182.853 200.293,182.480 199.920 C 182.107 199.547,182.000 199.653,182.000 200.400 M196.472 204.464 C 196.542 204.939,196.889 205.369,197.242 205.420 C 197.779 205.497,197.812 205.357,197.442 204.559 C 196.890 203.369,196.302 203.311,196.472 204.464 M183.100 204.628 C 182.935 204.796,182.800 205.479,182.800 206.147 C 182.800 207.014,182.923 207.237,183.231 206.929 C 183.468 206.692,183.603 206.008,183.531 205.410 C 183.459 204.812,183.265 204.461,183.100 204.628 M224.880 205.680 C 224.616 205.944,224.407 206.619,224.416 207.180 L 224.432 208.200 225.034 207.089 L 225.637 205.978 231.313 206.089 C 236.637 206.193,236.998 206.250,237.118 207.000 C 237.514 209.465,238.369 209.113,238.077 206.605 L 237.912 205.200 231.636 205.200 C 227.288 205.200,225.213 205.347,224.880 205.680 M183.600 208.376 C 183.600 208.829,183.780 209.200,184.000 209.200 C 184.220 209.200,184.400 208.941,184.400 208.624 C 184.400 208.307,184.220 207.936,184.000 207.800 C 183.780 207.664,183.600 207.923,183.600 208.376 M198.000 208.000 C 198.000 208.220,198.180 208.400,198.400 208.400 C 198.620 208.400,198.800 208.633,198.800 208.919 C 198.800 209.501,201.174 211.854,203.000 213.081 C 206.185 215.220,212.744 216.341,215.400 215.200 C 215.913 214.979,214.587 214.846,211.700 214.828 C 208.985 214.811,207.200 214.641,207.200 214.400 C 207.200 214.180,206.838 214.000,206.395 214.000 C 205.677 214.000,204.138 213.339,203.600 212.799 C 203.490 212.689,202.899 212.340,202.286 212.024 C 201.672 211.708,201.260 211.220,201.369 210.938 C 201.477 210.656,201.365 210.302,201.121 210.151 C 200.852 209.985,200.789 210.059,200.962 210.338 C 201.119 210.592,201.057 210.800,200.824 210.800 C 200.591 210.800,200.400 210.575,200.400 210.300 C 200.399 209.766,198.677 207.600,198.253 207.600 C 198.114 207.600,198.000 207.780,198.000 208.000 M223.600 208.829 C 223.600 209.064,223.375 209.485,223.100 209.763 C 222.825 210.041,222.242 210.748,221.805 211.334 C 221.368 211.920,220.783 212.400,220.505 212.400 C 220.227 212.400,220.000 212.580,220.000 212.800 C 220.000 213.020,219.730 213.200,219.400 213.200 C 219.070 213.200,218.800 213.380,218.800 213.600 C 218.800 214.339,219.476 214.010,221.357 212.354 C 223.240 210.696,224.781 208.400,224.010 208.400 C 223.785 208.400,223.600 208.593,223.600 208.829 M176.881 212.100 L 176.800 215.600 182.200 215.600 C 186.258 215.600,187.598 215.476,187.591 215.100 C 187.579 214.447,186.021 212.453,186.009 213.076 C 186.004 213.338,186.180 213.664,186.400 213.800 C 187.796 214.663,186.564 215.000,182.015 215.000 L 177.230 215.000 177.096 211.800 L 176.963 208.600 176.881 212.100 M236.319 211.062 C 235.944 212.112,235.704 213.037,235.785 213.118 C 236.066 213.399,237.267 210.445,237.134 209.801 C 237.060 209.444,236.693 210.012,236.319 211.062 M162.800 213.976 C 162.800 215.309,162.949 216.400,163.132 216.400 C 163.625 216.400,163.707 212.113,163.219 211.812 C 162.945 211.642,162.800 212.389,162.800 213.976 M217.500 213.757 C 216.728 214.343,216.590 214.800,217.186 214.800 C 217.398 214.800,217.765 214.440,218.000 214.000 C 218.499 213.068,218.443 213.041,217.500 213.757 M234.283 215.282 C 231.827 219.441,227.400 223.037,222.343 224.983 C 220.944 225.521,220.147 225.970,220.571 225.980 C 223.772 226.062,232.954 219.182,234.929 215.221 C 235.917 213.241,235.463 213.284,234.283 215.282 M162.827 221.595 C 162.863 224.012,163.037 225.901,163.213 225.792 C 163.629 225.535,163.502 217.200,163.082 217.200 C 162.906 217.200,162.792 219.178,162.827 221.595 M216.600 226.400 C 215.467 226.688,215.493 226.708,217.076 226.753 C 217.998 226.779,218.864 226.620,219.000 226.400 C 219.279 225.948,218.375 225.948,216.600 226.400 M211.305 227.087 C 211.914 227.179,212.814 227.177,213.305 227.082 C 213.797 226.987,213.300 226.911,212.200 226.914 C 211.100 226.917,210.697 226.995,211.305 227.087 M103.507 263.600 C 103.232 264.040,102.781 264.400,102.504 264.400 C 102.227 264.400,102.000 264.681,102.000 265.024 C 102.000 265.367,101.820 265.536,101.600 265.400 C 101.356 265.249,101.200 265.863,101.200 266.976 C 101.200 269.271,101.912 269.382,102.077 267.113 C 102.180 265.706,102.425 265.275,103.559 264.513 C 104.307 264.011,104.701 263.600,104.436 263.600 C 104.170 263.600,104.064 263.420,104.200 263.200 C 104.336 262.980,104.348 262.800,104.227 262.800 C 104.106 262.800,103.782 263.160,103.507 263.600 M108.004 264.651 C 108.006 264.843,111.336 268.326,115.404 272.391 C 119.824 276.808,122.800 279.504,122.800 279.091 C 122.800 278.711,122.648 278.400,122.463 278.400 C 122.070 278.400,116.400 272.777,116.400 272.387 C 116.400 272.241,116.040 271.707,115.600 271.200 C 115.160 270.693,114.800 270.423,114.800 270.600 C 114.800 270.778,113.549 269.694,112.020 268.191 C 110.491 266.689,109.350 265.266,109.484 265.030 C 109.618 264.793,109.581 264.733,109.401 264.897 C 109.221 265.060,108.832 264.993,108.537 264.748 C 108.242 264.503,108.002 264.459,108.004 264.651 M102.013 269.685 C 102.026 270.242,103.200 271.965,103.200 271.427 C 103.200 271.248,103.468 271.324,103.796 271.596 C 104.123 271.868,104.275 272.278,104.134 272.507 C 103.984 272.750,104.070 272.804,104.341 272.636 C 104.608 272.471,104.921 272.649,105.076 273.055 C 105.396 273.888,109.562 278.000,110.086 278.000 C 110.285 278.000,110.333 278.184,110.194 278.410 C 110.055 278.635,110.179 278.770,110.470 278.710 C 110.764 278.649,110.940 278.868,110.867 279.200 C 110.793 279.530,110.854 279.680,111.000 279.533 C 111.147 279.386,111.604 279.554,112.015 279.906 C 112.728 280.516,112.509 280.800,107.381 285.928 C 104.422 288.887,102.000 291.507,102.000 291.749 C 102.000 291.991,104.520 289.674,107.600 286.600 C 114.053 280.160,113.779 280.783,111.200 278.400 C 110.100 277.383,109.200 276.600,109.200 276.659 C 109.200 276.718,108.345 275.848,107.300 274.725 C 103.272 270.399,102.000 269.188,102.013 269.685 M115.357 289.100 C 106.430 298.090,105.423 298.676,102.926 296.330 C 102.417 295.852,102.000 295.672,102.000 295.930 C 102.000 296.189,102.225 296.403,102.500 296.406 C 102.833 296.410,102.800 296.542,102.400 296.800 C 101.915 297.114,101.972 297.189,102.700 297.194 C 103.195 297.197,103.600 297.380,103.600 297.600 C 103.600 297.820,104.410 298.000,105.400 298.000 C 106.390 298.000,107.200 297.820,107.200 297.600 C 107.200 297.380,107.381 297.200,107.603 297.200 C 107.824 297.200,111.525 293.680,115.828 289.377 C 120.131 285.074,123.595 281.429,123.526 281.277 C 123.457 281.125,119.781 284.645,115.357 289.100 M130.185 291.224 C 130.042 291.455,134.051 291.600,140.576 291.600 C 147.578 291.600,151.200 291.460,151.200 291.189 C 151.200 290.656,130.515 290.690,130.185 291.224 M128.060 292.242 C 127.245 293.163,127.682 293.245,128.806 292.382 C 129.456 291.882,129.592 291.620,129.200 291.624 C 128.870 291.628,128.357 291.905,128.060 292.242 M152.942 292.581 C 154.288 293.829,154.393 296.192,153.171 297.746 C 152.715 298.326,152.458 298.800,152.600 298.800 C 153.015 298.800,154.000 297.695,154.000 297.229 C 154.000 296.993,154.225 296.800,154.500 296.800 C 154.817 296.800,155.000 296.213,155.000 295.200 C 155.000 294.187,154.817 293.600,154.500 293.600 C 154.225 293.600,154.000 293.407,154.000 293.171 C 154.000 292.591,152.972 291.600,152.370 291.600 C 152.102 291.600,152.359 292.041,152.942 292.581 M101.216 293.171 C 100.781 293.983,101.037 295.200,101.643 295.200 C 101.839 295.200,102.000 294.570,102.000 293.800 C 102.000 292.213,101.810 292.060,101.216 293.171 M126.800 295.100 C 126.801 296.511,128.472 299.262,129.005 298.729 C 129.115 298.619,128.844 298.202,128.402 297.802 C 127.834 297.288,127.600 296.570,127.600 295.338 C 127.600 294.382,127.420 293.600,127.200 293.600 C 126.980 293.600,126.800 294.275,126.800 295.100 M316.714 298.180 C 316.556 300.150,316.511 301.845,316.614 301.947 C 317.092 302.425,317.224 301.427,317.116 298.150 L 317.000 294.600 316.714 298.180 M130.000 299.200 C 130.000 299.457,134.008 299.600,141.224 299.600 C 148.604 299.600,152.363 299.463,152.200 299.200 C 152.045 298.949,147.863 298.800,140.976 298.800 C 133.925 298.800,130.000 298.943,130.000 299.200 M82.828 301.500 C 82.813 302.215,82.980 302.800,83.200 302.800 C 83.675 302.800,83.675 302.105,83.200 301.000 C 82.912 300.330,82.852 300.411,82.828 301.500 M308.400 301.920 C 308.400 302.624,308.220 303.200,308.000 303.200 C 307.780 303.200,307.600 303.457,307.600 303.772 C 307.600 304.876,303.663 308.400,302.429 308.400 C 302.010 308.400,301.592 308.625,301.500 308.900 C 301.367 309.298,280.691 309.395,199.809 309.374 C 143.970 309.360,98.625 309.483,99.042 309.646 C 100.773 310.325,299.718 310.048,301.726 309.363 C 305.236 308.167,310.212 302.452,308.893 301.133 C 308.502 300.742,308.400 300.906,308.400 301.920 M90.800 302.355 C 90.800 303.307,93.620 306.747,95.345 307.900 C 97.378 309.259,98.000 309.470,98.000 308.800 C 98.000 308.580,97.640 308.400,97.200 308.400 C 96.760 308.400,96.400 308.220,96.400 308.000 C 96.400 307.780,96.130 307.600,95.800 307.600 C 95.470 307.600,95.200 307.420,95.200 307.200 C 95.200 306.980,95.007 306.800,94.771 306.800 C 93.959 306.800,91.600 303.704,91.600 302.638 C 91.600 302.287,91.420 302.000,91.200 302.000 C 90.980 302.000,90.800 302.160,90.800 302.355 M315.849 303.530 C 315.672 304.042,315.633 304.567,315.763 304.697 C 316.178 305.111,316.470 304.500,316.318 303.534 L 316.171 302.600 315.849 303.530 M83.606 304.276 C 83.603 304.758,83.780 305.264,84.000 305.400 C 84.509 305.715,84.509 304.788,84.000 304.000 C 83.685 303.512,83.611 303.564,83.606 304.276 M313.845 308.188 C 313.324 308.982,313.246 309.406,313.563 309.723 C 313.879 310.039,314.000 309.926,314.000 309.313 C 314.000 308.848,314.207 308.398,314.460 308.313 C 314.713 308.229,314.840 307.919,314.742 307.625 C 314.624 307.271,314.321 307.462,313.845 308.188 M85.200 308.128 C 85.200 308.445,85.920 309.445,86.800 310.352 C 87.680 311.259,88.400 312.172,88.400 312.382 C 88.400 312.591,89.028 313.061,89.796 313.425 C 90.565 313.790,91.117 314.211,91.024 314.361 C 90.931 314.511,91.248 314.661,91.728 314.694 C 92.590 314.753,92.591 314.747,91.800 314.169 C 91.360 313.848,90.677 313.313,90.281 312.980 C 89.886 312.648,89.363 312.499,89.120 312.650 C 88.876 312.800,88.784 312.749,88.916 312.536 C 89.048 312.323,88.446 311.395,87.578 310.473 C 86.710 309.552,86.000 308.629,86.000 308.423 C 86.000 308.216,85.820 307.936,85.600 307.800 C 85.380 307.664,85.200 307.812,85.200 308.128 M310.618 311.756 C 309.528 312.880,308.671 313.929,308.713 314.086 C 308.756 314.243,308.541 314.275,308.236 314.158 C 307.623 313.923,306.990 314.623,307.518 314.950 C 308.150 315.340,313.200 310.812,313.200 309.855 C 313.200 309.297,312.512 309.803,310.618 311.756 M92.800 315.118 C 92.800 315.329,93.056 315.714,93.368 315.973 C 93.824 316.352,93.916 316.307,93.833 315.744 C 93.725 315.011,92.800 314.450,92.800 315.118 M306.184 315.299 C 306.045 315.659,305.644 315.832,305.208 315.718 C 304.715 315.589,304.308 315.837,303.985 316.462 C 303.586 317.237,303.594 317.313,304.031 316.900 C 304.322 316.625,304.862 316.400,305.231 316.400 C 305.985 316.400,307.048 315.314,306.666 314.933 C 306.530 314.797,306.313 314.961,306.184 315.299 M94.626 315.958 C 94.504 316.155,94.674 316.419,95.002 316.546 C 95.365 316.685,95.600 316.544,95.600 316.187 C 95.600 315.540,94.975 315.393,94.626 315.958 M96.800 316.800 C 96.800 317.020,97.160 317.200,97.600 317.200 C 98.040 317.200,98.400 317.020,98.400 316.800 C 98.400 316.580,98.040 316.400,97.600 316.400 C 97.160 316.400,96.800 316.580,96.800 316.800 M301.400 316.800 C 301.264 317.020,301.513 317.200,301.953 317.200 C 302.393 317.200,302.864 317.020,303.000 316.800 C 303.136 316.580,302.887 316.400,302.447 316.400 C 302.007 316.400,301.536 316.580,301.400 316.800 " stroke="none" fill="#5c747c" fill-rule="evenodd"></path></g></svg>